<?xml version="1.0" encoding="iso-8859-1"?>
<!-- Uploaded to: SVG Repo, www.svgrepo.com, Generator: SVG Repo Mixer Tools -->
<svg fill="#000000" height="300px" width="300px" version="1.1" id="Layer_1" xmlns="http://www.w3.org/2000/svg" xmlns:xlink="http://www.w3.org/1999/xlink" 
	 viewBox="0 0 503.699 503.699" xml:space="preserve">
<g>
	<g>
		<g>
			<path d="M260.948,212.534c1.877,4.239,6.834,6.153,11.073,4.277s6.153-6.834,4.277-11.073
				c-7.914-17.873-23.539-29.429-47.72-29.429c-4.636,0-8.393,3.758-8.393,8.393s3.758,8.393,8.393,8.393
				C245.688,193.096,255.581,200.411,260.948,212.534z"/>
			<path d="M395.363,0.046c-41.41,0-74.171,20.637-93.16,55.356c-18.996-34.719-51.757-55.356-93.166-55.356
				c-75.031,0-119.666,67.977-105.834,144.045c-5.311-0.892-10.851-1.357-16.605-1.357c-85.178,0-115.567,101.415-54.474,168.838
				c7.71,8.511,23.525,24.496,59.328,60.239c25.412,25.369,33.703,33.66,41.987,42.05l-7.25,29.001
				c-1.324,5.297,2.682,10.429,8.143,10.429h16.787v41.967c0,4.636,3.758,8.393,8.393,8.393s8.393-3.758,8.393-8.393v-41.967h16.787
				c5.461,0,9.467-5.132,8.143-10.429l-7.25-29.001c8.281-8.387,16.549-16.655,41.76-41.824
				c10.32-10.302,18.974-18.959,26.262-26.276c7.224,8.163,17.283,19.827,22.588,25.865l-7.317,29.269
				c-1.324,5.297,2.682,10.429,8.143,10.429h16.787v83.934c0,4.636,3.758,8.393,8.393,8.393c4.636,0,8.393-3.758,8.393-8.393
				v-83.934h16.787c5.461,0,9.467-5.132,8.143-10.429l-7.287-29.149c39.157-42.085,116.37-127.063,135.154-148.954
				C539.942,133.588,502.046,0.046,395.363,0.046z M145.082,436.505l4.197-16.787h20.467l4.197,16.787H145.082z M215.711,359.932
				c-26.342,26.297-34.301,34.258-42.925,43h-26.549c-8.624-8.741-16.583-16.702-42.699-42.774
				c-35.676-35.617-51.554-51.664-58.974-59.856c-52.11-57.509-27.158-140.78,42.033-140.78c8.592,0,16.539,1.21,23.782,3.522
				c0.423,0.234,0.86,0.445,1.325,0.605c17.262,5.934,30.396,18.254,38.291,35.457c0.126,0.276,0.253,0.551,0.376,0.829
				c0.406,0.913,0.798,1.839,1.175,2.778c0.052,0.129,0.108,0.254,0.159,0.384c1.399,3.54,4.604,5.309,7.808,5.308
				c3.204,0.001,6.409-1.769,7.807-5.308c8.056-20.384,22.668-34.45,42.423-40.392c6.945-2.089,14.521-3.182,22.679-3.183
				c39.277,0.001,64.29,26.838,69.054,60.56c3.626,25.682-4.488,55.357-27.017,80.219c-0.114,0.126-0.236,0.259-0.354,0.388
				c-4.105,4.42-24.506,25.241-26.234,27.029c-0.008,0.008-0.014,0.017-0.022,0.025
				C239.487,336.169,228.968,346.697,215.711,359.932z M287.77,394.538l4.197-16.787h20.467l4.197,16.787H287.77z M315.34,360.964
				h-26.17c-5.097-5.794-16.063-18.522-23.712-27.142c10.542-10.667,17.008-17.374,21.175-21.957c0.09-0.097,0.197-0.213,0.27-0.292
				c24.214-26.723,34.043-58.783,31.798-87.755c-3.417-44.125-34.857-81.084-86.275-81.084c-0.001,0-0.002,0-0.003,0
				c-0.001,0-0.001,0-0.002,0c-8.843,0-17.184,1.086-24.954,3.164c-0.155,0.041-0.313,0.078-0.468,0.12
				c-0.558,0.153-1.108,0.319-1.661,0.482c-0.317,0.094-0.638,0.18-0.953,0.277c-0.361,0.111-0.716,0.234-1.074,0.349
				c-0.5,0.161-1.002,0.317-1.497,0.487c-0.16,0.055-0.316,0.116-0.476,0.172c-0.687,0.24-1.372,0.483-2.048,0.739
				c-0.009,0.004-0.018,0.008-0.028,0.011c-16.634,6.315-30.179,17.592-39.75,32.866c-9.249-14.761-22.214-25.78-38.086-32.205
				c-16.889-69.887,21.548-132.365,87.611-132.365c40.558,0,70.814,22.976,85.306,61.696c2.721,7.269,13.003,7.268,15.722-0.001
				c14.483-38.718,44.738-61.695,85.297-61.695c90.581,0,123.401,115.656,55.289,195.028
				C431.953,233.652,354.157,319.265,315.34,360.964z"/>
			<path d="M484.398,371.816c-1.355-1.355-1.355-3.561,0-4.917c7.911-7.911,7.911-20.746,0-28.657l-2.342-2.342
				c-1.061-1.061-1.322-2.675-0.649-4.023l4.563-9.127c2.073-4.146,0.393-9.188-3.754-11.261c-4.146-2.073-9.188-0.393-11.261,3.754
				l-4.566,9.132c-3.898,7.811-2.373,17.225,3.797,23.395l2.342,2.342c1.355,1.355,1.355,3.561,0,4.917
				c-7.911,7.911-7.911,20.746,0,28.657l2.342,2.342c1.061,1.061,1.322,2.675,0.649,4.023l-4.563,9.127
				c-2.073,4.146-0.393,9.188,3.754,11.261c4.146,2.073,9.188,0.393,11.261-3.754l4.566-9.132
				c3.898-7.811,2.373-17.225-3.797-23.395L484.398,371.816z"/>
			<path d="M47.035,56.342c1.355,1.355,1.355,3.561,0,4.917c-7.911,7.911-7.911,20.746,0,28.657l2.342,2.342
				c1.061,1.061,1.322,2.675,0.649,4.023l-4.563,9.127c-2.073,4.146-0.393,9.188,3.754,11.261c4.146,2.073,9.188,0.393,11.261-3.754
				l4.566-9.132c3.898-7.811,2.373-17.225-3.797-23.395l-2.342-2.342c-1.355-1.355-1.355-3.561,0-4.917
				c7.911-7.911,7.911-20.746,0-28.657l-2.342-2.342c-1.061-1.061-1.322-2.675-0.649-4.023l4.563-9.127
				c2.073-4.146,0.393-9.188-3.754-11.261c-4.146-2.073-9.188-0.393-11.261,3.754l-4.566,9.132
				C36.998,38.416,38.523,47.83,44.693,54L47.035,56.342z"/>
			<path d="M386.135,33.62c-4.636,0-8.393,3.758-8.393,8.393s3.758,8.393,8.393,8.393c26.649,0,42.47,10.636,50.767,28.686
				c1.936,4.212,6.92,6.057,11.132,4.121c4.212-1.936,6.057-6.92,4.121-11.132C441.177,48.2,419.49,33.62,386.135,33.62z"/>
		</g>
	</g>
</g>
</svg>