<?xml version="1.0" encoding="UTF-8"?>
<svg xmlns="http://www.w3.org/2000/svg" id="Layer_1" data-name="Layer 1" viewBox="0 0 24 24">
  <path d="m23.5,15c-1.744,0-3.299.433-4.592,1.198-.304-2.399-1.41-4.741-3.054-6.385l-.354-.354-.354.354c-1.644,1.644-2.75,3.986-3.055,6.384-1.293-.765-2.848-1.197-4.592-1.197h-.5v.5c0,5.072,3.054,8.296,8,8.5h1c4.946-.204,8-3.428,8-8.5v-.5h-.5Zm-8-4.104c1.408,1.586,2.31,3.759,2.469,5.942-1.13.915-1.974,2.142-2.469,3.592-.495-1.45-1.339-2.677-2.469-3.592.159-2.182,1.061-4.355,2.469-5.942Zm-7.488,5.119c3.972.22,6.755,3.002,6.975,6.974-4.218-.191-6.784-2.757-6.975-6.974Zm8.002,6.974c.22-3.972,3.002-6.754,6.975-6.974-.191,4.217-2.757,6.783-6.975,6.974ZM5.5,7c1.378,0,2.5-1.122,2.5-2.5,0-1.216-1.755-3.505-2.107-3.952l-.393-.498-.393.498c-.352.447-2.107,2.735-2.107,3.952,0,1.378,1.122,2.5,2.5,2.5Zm0-5.312c.717.988,1.5,2.272,1.5,2.812,0,.827-.673,1.5-1.5,1.5s-1.5-.673-1.5-1.5c0-.54.783-1.824,1.5-2.812Zm2.231,21.312c.35.365.733.697,1.143,1H0v-13.5c0-1.378,1.122-2.5,2.5-2.5h6c1.378,0,2.5,1.122,2.5,2.5v3.041c-.325-.104-.659-.193-1-.267v-2.774c0-.827-.673-1.5-1.5-1.5H2.5c-.827,0-1.5.673-1.5,1.5v12.5h6.731Z"/>
</svg>
